<svg width="330" height="54" viewBox="0 0 330 54" fill="none" xmlns="http://www.w3.org/2000/svg">
<path d="M17.8462 42.564C13.9253 42.564 10.6489 41.7046 8.01709 39.9858C5.40316 38.2671 3.43376 35.9128 2.10889 32.9229C0.801921 29.9329 0.148438 26.5402 0.148438 22.7446V22.1807C0.148438 18.3493 0.837728 14.9476 2.21631 11.9756C3.59489 8.98568 5.57324 6.63135 8.15137 4.9126C10.7295 3.19385 13.8089 2.33447 17.3896 2.33447C19.9141 2.33447 22.2236 2.72835 24.3184 3.51611C26.4131 4.30387 28.1497 5.30648 29.5283 6.52393V14.9565H25.312L24.748 8.77979C24.1751 8.33219 23.5127 7.95622 22.7607 7.65186C22.0267 7.34749 21.2031 7.11475 20.29 6.95361C19.3949 6.79248 18.4191 6.71191 17.3628 6.71191C14.8026 6.71191 12.6362 7.37435 10.8638 8.69922C9.09131 10.0062 7.74854 11.8145 6.83545 14.124C5.92236 16.4336 5.46582 19.1012 5.46582 22.127V22.7446C5.46582 26.021 5.94922 28.8229 6.91602 31.1504C7.90072 33.46 9.32406 35.2235 11.186 36.4409C13.0659 37.6584 15.3486 38.2671 18.0342 38.2671C19.2874 38.2671 20.5138 38.1149 21.7134 37.8105C22.9129 37.5062 23.9066 37.1123 24.6943 36.6289L25.2852 31.1772H29.4209V39.6636C27.9528 40.5767 26.1982 41.2928 24.1572 41.812C22.1162 42.3133 20.0125 42.564 17.8462 42.564ZM44.0303 42.564C41.0046 42.564 38.7039 41.8299 37.1284 40.3618C35.5529 38.8758 34.7651 36.79 34.7651 34.1045C34.7651 32.2604 35.2664 30.658 36.269 29.2974C37.2896 27.9188 38.7576 26.8535 40.6733 26.1016C42.589 25.3317 44.8807 24.9468 47.5483 24.9468H52.7314V22.1001C52.7314 20.3455 52.1943 18.9849 51.1201 18.0181C50.0638 17.0513 48.5688 16.5679 46.6353 16.5679C45.4178 16.5679 44.3615 16.7201 43.4663 17.0244C42.5711 17.3109 41.7565 17.7137 41.0225 18.2329L40.4585 22.2881H36.3765V15.6279C37.6834 14.5716 39.2052 13.7749 40.9419 13.2378C42.6785 12.6828 44.6032 12.4053 46.7158 12.4053C50.2428 12.4053 53.009 13.2467 55.0142 14.9297C57.0194 16.6126 58.022 19.0207 58.022 22.1538V36.1455C58.022 36.5215 58.022 36.8885 58.022 37.2466C58.0399 37.6047 58.0667 37.9627 58.1025 38.3208L60.9224 38.6162V42H53.3223C53.1611 41.2122 53.0358 40.505 52.9463 39.8784C52.8568 39.2518 52.7941 38.6252 52.7583 37.9985C51.7378 39.3055 50.4577 40.3976 48.918 41.2749C47.3962 42.1343 45.7669 42.564 44.0303 42.564ZM44.8091 38.1328C46.5636 38.1328 48.166 37.7121 49.6162 36.8706C51.0664 36.0291 52.1048 35.0176 52.7314 33.8359V28.5723H47.3604C44.9255 28.5723 43.0993 29.1541 41.8818 30.3179C40.6644 31.4816 40.0557 32.7796 40.0557 34.2119C40.0557 35.4831 40.4495 36.4588 41.2373 37.1392C42.0251 37.8016 43.2157 38.1328 44.8091 38.1328ZM65.0312 42V38.6162L69.4087 37.8643V17.105L65.0312 16.353V12.9424H74.1621L74.5112 16.729C75.4422 15.3504 76.6418 14.2852 78.1099 13.5332C79.578 12.7812 81.2788 12.4053 83.2124 12.4053C85.146 12.4053 86.8021 12.8529 88.1807 13.748C89.5771 14.6432 90.6245 15.986 91.3228 17.7764C92.2358 16.1292 93.4443 14.8223 94.9482 13.8555C96.4521 12.8887 98.2067 12.4053 100.212 12.4053C103.184 12.4053 105.529 13.4258 107.248 15.4668C108.967 17.4899 109.826 20.5425 109.826 24.6245V37.8643L114.204 38.6162V42H100.131V38.6162L104.509 37.8643V24.5708C104.509 21.7062 104.016 19.6831 103.032 18.5015C102.047 17.3019 100.588 16.7021 98.6543 16.7021C96.8102 16.7021 95.3242 17.3556 94.1963 18.6626C93.0863 19.9517 92.4417 21.5809 92.2627 23.5503V37.8643L96.6401 38.6162V42H82.5947V38.6162L86.9722 37.8643V24.5708C86.9722 21.8494 86.4619 19.8621 85.4414 18.6089C84.4388 17.3377 82.9797 16.7021 81.064 16.7021C79.4526 16.7021 78.1278 17.0334 77.0894 17.6958C76.0509 18.3582 75.2542 19.2892 74.6992 20.4888V37.8643L79.0767 38.6162V42H65.0312ZM117.963 42V38.6162L122.341 37.8643V17.105L117.963 16.353V12.9424H127.631V37.8643L132.009 38.6162V42H117.963ZM122.072 5.77197V0.105469H127.631V5.77197H122.072ZM135.393 42V38.6162L139.77 37.8643V4.26807L135.393 3.51611V0.105469H145.061V37.8643L149.438 38.6162V42H135.393ZM162.624 42.564C159.598 42.564 157.298 41.8299 155.722 40.3618C154.147 38.8758 153.359 36.79 153.359 34.1045C153.359 32.2604 153.86 30.658 154.863 29.2974C155.883 27.9188 157.351 26.8535 159.267 26.1016C161.183 25.3317 163.474 24.9468 166.142 24.9468H171.325V22.1001C171.325 20.3455 170.788 18.9849 169.714 18.0181C168.658 17.0513 167.163 16.5679 165.229 16.5679C164.012 16.5679 162.955 16.7201 162.06 17.0244C161.165 17.3109 160.35 17.7137 159.616 18.2329L159.052 22.2881H154.97V15.6279C156.277 14.5716 157.799 13.7749 159.536 13.2378C161.272 12.6828 163.197 12.4053 165.31 12.4053C168.837 12.4053 171.603 13.2467 173.608 14.9297C175.613 16.6126 176.616 19.0207 176.616 22.1538V36.1455C176.616 36.5215 176.616 36.8885 176.616 37.2466C176.634 37.6047 176.66 37.9627 176.696 38.3208L179.516 38.6162V42H171.916C171.755 41.2122 171.63 40.505 171.54 39.8784C171.451 39.2518 171.388 38.6252 171.352 37.9985C170.332 39.3055 169.051 40.3976 167.512 41.2749C165.99 42.1343 164.361 42.564 162.624 42.564ZM163.403 38.1328C165.157 38.1328 166.76 37.7121 168.21 36.8706C169.66 36.0291 170.699 35.0176 171.325 33.8359V28.5723H165.954C163.519 28.5723 161.693 29.1541 160.476 30.3179C159.258 31.4816 158.649 32.7796 158.649 34.2119C158.649 35.4831 159.043 36.4588 159.831 37.1392C160.619 37.8016 161.809 38.1328 163.403 38.1328ZM197.053 42V38.6162L201.43 37.8643V4.26807L197.053 3.51611V0.105469H206.721V37.8643L211.098 38.6162V42H197.053ZM227.48 42.564C224.794 42.564 222.476 41.9373 220.524 40.6841C218.591 39.4129 217.096 37.6673 216.04 35.4473C214.983 33.2093 214.455 30.658 214.455 27.7935V27.2026C214.455 24.3381 214.983 21.7957 216.04 19.5757C217.096 17.3377 218.591 15.5832 220.524 14.312C222.476 13.0409 224.777 12.4053 227.426 12.4053C230.112 12.4053 232.421 13.0409 234.355 14.312C236.306 15.5832 237.81 17.3288 238.867 19.5488C239.923 21.7689 240.451 24.3201 240.451 27.2026V27.7935C240.451 30.6759 239.923 33.2362 238.867 35.4741C237.81 37.6942 236.315 39.4308 234.382 40.6841C232.448 41.9373 230.148 42.564 227.48 42.564ZM227.48 38.4282C229.163 38.4282 230.568 37.9717 231.696 37.0586C232.842 36.1276 233.701 34.8654 234.274 33.272C234.865 31.6606 235.161 29.8345 235.161 27.7935V27.2026C235.161 25.1616 234.865 23.3444 234.274 21.751C233.701 20.1396 232.842 18.8774 231.696 17.9644C230.55 17.0334 229.127 16.5679 227.426 16.5679C225.743 16.5679 224.329 17.0334 223.183 17.9644C222.037 18.8774 221.178 20.1396 220.605 21.751C220.032 23.3444 219.746 25.1616 219.746 27.2026V27.7935C219.746 29.8345 220.032 31.6606 220.605 33.272C221.178 34.8654 222.037 36.1276 223.183 37.0586C224.347 37.9717 225.779 38.4282 227.48 38.4282ZM243.728 53.1719V49.7612L247.836 49.0093V17.105L243.459 16.353V12.9424H252.375L252.858 16.4873C253.825 15.1624 254.998 14.1509 256.376 13.4526C257.773 12.7544 259.384 12.4053 261.21 12.4053C263.61 12.4053 265.66 13.0588 267.36 14.3657C269.061 15.6548 270.359 17.472 271.254 19.8174C272.15 22.1449 272.597 24.8752 272.597 28.0083V28.5723C272.597 31.3652 272.141 33.8091 271.228 35.9038C270.332 37.9985 269.043 39.6367 267.36 40.8184C265.677 41.9821 263.654 42.564 261.291 42.564C259.501 42.564 257.925 42.2686 256.564 41.6777C255.222 41.069 254.076 40.1738 253.127 38.9922V49.0093L257.746 49.7612V53.1719H243.728ZM259.653 38.4282C262.159 38.4282 264.057 37.5151 265.346 35.689C266.635 33.8628 267.28 31.4906 267.28 28.5723V28.0083C267.28 25.7882 266.993 23.8368 266.42 22.1538C265.847 20.453 264.988 19.1191 263.842 18.1523C262.714 17.1855 261.3 16.7021 259.599 16.7021C258.095 16.7021 256.806 17.0423 255.732 17.7227C254.658 18.403 253.789 19.334 253.127 20.5156V34.6685C253.789 35.868 254.649 36.799 255.705 37.4614C256.779 38.106 258.095 38.4282 259.653 38.4282ZM291.02 42.564C288.334 42.564 285.998 41.9552 284.011 40.7378C282.023 39.5024 280.484 37.7926 279.392 35.6084C278.317 33.4242 277.78 30.8997 277.78 28.0352V26.8535C277.78 24.0964 278.344 21.6346 279.472 19.4683C280.618 17.284 282.131 15.5653 284.011 14.312C285.909 13.0409 287.976 12.4053 290.214 12.4053C292.828 12.4053 295.013 12.9424 296.767 14.0166C298.54 15.0908 299.873 16.6037 300.769 18.5552C301.664 20.4888 302.111 22.7715 302.111 25.4033V28.7065H283.259L283.178 28.8408C283.214 30.7028 283.536 32.3589 284.145 33.8091C284.772 35.2414 285.667 36.3693 286.831 37.1929C287.994 38.0164 289.391 38.4282 291.02 38.4282C292.81 38.4282 294.377 38.1776 295.72 37.6763C297.08 37.1571 298.253 36.4499 299.238 35.5547L301.306 38.9922C300.267 39.9948 298.889 40.8452 297.17 41.5435C295.469 42.2238 293.419 42.564 291.02 42.564ZM283.42 24.5708H296.821V23.8726C296.821 22.4761 296.57 21.2318 296.069 20.1396C295.585 19.0296 294.851 18.1613 293.867 17.5347C292.9 16.8901 291.682 16.5679 290.214 16.5679C289.033 16.5679 287.958 16.917 286.992 17.6152C286.025 18.2956 285.228 19.2266 284.602 20.4082C283.975 21.5898 283.563 22.9326 283.366 24.4365L283.42 24.5708ZM318.171 42.564C316.219 42.564 314.393 42.367 312.692 41.9731C310.992 41.5793 309.183 40.9705 307.268 40.147L307.214 33.2451H311.215L312.209 37.4077C313.212 37.8195 314.178 38.1239 315.109 38.3208C316.058 38.4998 317.079 38.5894 318.171 38.5894C320.319 38.5894 321.859 38.1776 322.79 37.354C323.721 36.5304 324.187 35.5099 324.187 34.2925C324.187 33.1466 323.712 32.1799 322.763 31.3921C321.832 30.5864 320.131 29.9061 317.661 29.3511C314.152 28.5454 311.564 27.4712 309.899 26.1284C308.252 24.7677 307.429 22.9595 307.429 20.7036C307.429 19.1281 307.885 17.7227 308.798 16.4873C309.711 15.234 310.983 14.2404 312.612 13.5063C314.241 12.7723 316.139 12.4053 318.305 12.4053C320.507 12.4053 322.387 12.6559 323.945 13.1572C325.52 13.6585 326.89 14.3299 328.054 15.1714L328.322 21.8047H324.348L323.488 17.9375C322.862 17.472 322.119 17.1139 321.259 16.8633C320.4 16.6126 319.415 16.4873 318.305 16.4873C316.658 16.4873 315.315 16.8722 314.277 17.6421C313.256 18.4119 312.746 19.3787 312.746 20.5425C312.746 21.2228 312.889 21.8136 313.176 22.3149C313.48 22.8162 314.053 23.2728 314.895 23.6846C315.736 24.0785 316.971 24.4723 318.601 24.8662C322.647 25.8151 325.467 27.0236 327.06 28.4917C328.671 29.9598 329.477 31.7681 329.477 33.9165C329.477 36.3693 328.564 38.4282 326.738 40.0933C324.93 41.7404 322.074 42.564 318.171 42.564Z" fill="black"/>
</svg>
